<svg version="1.1" xmlns="http://www.w3.org/2000/svg" xmlns:xlink="http://www.w3.org/1999/xlink" width="48" height="48"><defs><linearGradient x1="10.47322" y1="10.46951" x2="96.28252" y2="96.28626" gradientUnits="userSpaceOnUse" id="color-1"><stop offset="0" stop-color="#000000" stop-opacity="0.68"></stop><stop offset="1" stop-color="#000000" stop-opacity="0"></stop></linearGradient><filter id="dropshadow-base"><feColorMatrix type="matrix" values="0 0 0 0 0  0 0 0 0 0  0 0 0 0 0  0 0 0 .8 0"></feColorMatrix> <feOffset dx="0" dy="1"></feOffset> <feGaussianBlur stdDeviation="1"></feGaussianBlur> <feComposite in="SourceGraphic"></feComposite></filter><filter id="dropshadow-banner" x="-10%" y="-10%" width="120%" height="130%"><feColorMatrix type="matrix" values="0 0 0 0 0  0 0 0 0 0  0 0 0 0 0  0 0 0 .4 0"></feColorMatrix> <feOffset dx="0" dy="1"></feOffset> <feGaussianBlur stdDeviation="0.5"></feGaussianBlur> <feComposite in="SourceGraphic"></feComposite></filter></defs><g fill="none" fill-rule="nonzero" stroke="none" stroke-width="none" stroke-linecap="butt" stroke-linejoin="miter" stroke-miterlimit="10" stroke-dasharray="" stroke-dashoffset="0" font-family="none" font-weight="none" font-size="none" text-anchor="none" style="mix-blend-mode: normal"><path d="M2,24c0,-12.15026 9.84974,-22 22,-22c12.15026,0 22,9.84974 22,22c0,12.15026 -9.84974,22 -22,22c-12.15026,0 -22,-9.84974 -22,-22z" id="base 1 5" fill="#512da8" stroke-width="1"></path><path d="M18.62218,13.47959l2.68892,-2.71879c0.38839,-0.38839 1.01582,-0.38839 1.40421,0l3.76448,3.73461l10.75567,10.75567c0,0 0,0 0,0l7.11712,7.11712c-0.64502,1.56708 -1.46575,3.04329 -2.43768,4.40411zM13.75225,34.21416c-4.3919,-4.42178 -4.36203,-11.53247 0.02988,-15.8945l3.43584,-3.43584l10.75569,10.75569l5.1687,5.13881l7.55132,7.55132c-3.73241,4.34416 -9.13137,7.215 -15.20514,7.6208z" fill="url(#color-1)" stroke-width="1"></path><path transform="translate(-8.47319,-8.47319) scale(1.35305,1.35305)" d="M25.83275,18.01325l-2.00938,2.00938l-3.79796,-3.79796l1.9873,-2.00938c0.28705,-0.28705 0.75076,-0.28705 1.03781,0l2.78222,2.76014c0.28705,0.28705 0.28705,0.75076 0,1.03781zM33.78196,25.96246l-2.00938,2.00938l-3.79796,-3.79796l2.00938,-2.00938c0.28705,-0.28705 0.75076,-0.28705 1.03781,0l2.76014,2.76014c0.28705,0.28705 0.28705,0.75076 0,1.03781zM30.75685,29.00966l-2.53933,2.53933c-1.54568,1.56776 -3.66547,2.45101 -5.87359,2.45101c-2.2302,0 -4.34999,-0.88325 -5.91775,-2.45101c-3.24593,-3.26801 -3.22385,-8.52332 0.02208,-11.74717l2.53933,-2.53933l3.79796,3.79796l-2.53933,2.53933c-1.14822,1.14822 -1.14822,3.00304 0,4.15126c1.14822,1.14822 3.00304,1.14822 4.15126,0l2.53933,-2.53933z" fill="none" stroke-width="0"></path><path d="M26.4798,15.89963l-2.7188,2.7188l-5.13882,-5.13882l2.68892,-2.7188c0.3884,-0.3884 1.01581,-0.3884 1.40421,0l3.76449,3.73461c0.3884,0.3884 0.3884,1.01581 0,1.40421zM37.23548,26.65531l-2.7188,2.7188l-5.13882,-5.13882l2.7188,-2.7188c0.3884,-0.3884 1.01581,-0.3884 1.40421,0l3.73461,3.73461c0.3884,0.3884 0.3884,1.01581 0,1.40421zM33.14235,30.77832l-3.43584,3.43584c-2.09138,2.12126 -4.95956,3.31633 -7.94725,3.31633c-3.01757,0 -5.88575,-1.19508 -8.007,-3.31633c-4.3919,-4.42178 -4.36203,-11.53248 0.02988,-15.8945l3.43584,-3.43584l5.13882,5.13882l-3.43584,3.43584c-1.5536,1.5536 -1.5536,4.06326 0,5.61685c1.5536,1.5536 4.06326,1.5536 5.61685,0l3.43584,-3.43584z" fill="#ffffff" stroke-width="0"></path><path d="M2,24c0,-12.15026 9.84974,-22 22,-22c12.15026,0 22,9.84974 22,22c0,12.15026 -9.84974,22 -22,22c-12.15026,0 -22,-9.84974 -22,-22z" id="base 1 1 1" fill="none" stroke-width="1"></path><g id="Capa_1 1 1" fill="#000000" stroke-width="1" font-family="Roboto, sans-serif" font-weight="400" font-size="14" text-anchor="start"><g><g></g></g><g><g></g></g><g><g></g></g><g></g><g></g><g></g><g></g><g></g><g></g><g></g><g></g><g></g><g></g><g></g><g></g><g></g><g></g><g></g></g><rect x="2" y="2" width="44" height="22" fill="none" stroke-width="1"></rect><path d="M2,24v-22h44v22z" fill="none" stroke-width="1"></path><path d="M2,24v-22h44v22z" fill="none" stroke-width="1"></path><path d="M2,24v-22h44v22z" fill="none" stroke-width="1"></path><path d="M2,24v-22h44v22z" fill="none" stroke-width="1"></path></g></svg>